# xmcd
#
# Track frame offsets:
#	150
#	17345
#	32535
#	53135
#	68275
#	84862
#	99679
#	119659
#	134861
#	157192
#	176668
#	196416
#	212800
#	227449
#	247686
#	265291
#	279779
#
# Disc length: 3910 seconds
#
# Revision: 0
# Processed by: cddbd v1.4PL0 Copyright (c) Steve Scherf et al.
# Submitted via: EasyCDDAExtractor 5.0.5.1
#
DISCID=e00f4411
DTITLE=Various Artist - On Hits
DYEAR=2002
DGENRE=blues
TTITLE0=許志安 - 女人之苦
TTITLE1=許志安 - 天下之大
TTITLE2= - Track 3
TTITLE3= - Track 4
TTITLE4= - Track 5
TTITLE5= - Track 6
TTITLE6= - Track 7
TTITLE7= - Track 8
TTITLE8= - Track 9
TTITLE9= - Track 10
TTITLE10= - Track 11
TTITLE11= - Track 12
TTITLE12= - Track 13
TTITLE13= - Track 14
TTITLE14= - Track 15
TTITLE15= - Track 16
TTITLE16= - Track 17
EXTD=
EXTT0=
EXTT1=
EXTT2=
EXTT3=
EXTT4=
EXTT5=
EXTT6=
EXTT7=
EXTT8=
EXTT9=
EXTT10=
EXTT11=
EXTT12=
EXTT13=
EXTT14=
EXTT15=
EXTT16=
PLAYORDER=
